<?xml version="1.0" encoding="utf-8"?>
<!-- Generator: Adobe Illustrator 23.0.6, SVG Export Plug-In . SVG Version: 6.00 Build 0)  -->
<svg version="1.1" baseProfile="tiny" id="Layer_1" xmlns="http://www.w3.org/2000/svg" xmlns:xlink="http://www.w3.org/1999/xlink"
	 x="0px" y="0px" width="600px" height="267px" viewBox="0 0 600 267" xml:space="preserve">
<path fill="#E30613" d="M109.5,34.8L109.5,34.8c-0.4-0.6-0.7-1.1-1-1.7c-0.6-1-1.3-2.1-1.9-3.1c-1.1-1.6-2.1-3-3-4.3
	c3.1-4.2,6.3-8.1,9.6-11.7c2.6,2.1,5,4.4,7.3,6.8C116.5,25,112.9,29.7,109.5,34.8L109.5,34.8z M78.7,267.3L78.7,267.3V267
	c0.2-0.1,0.3-0.3,0.5-0.4c0.1-0.1,0.3-0.2,0.4-0.3c3.8-2.7,7.4-5.8,10.9-9.2c3-3,6.1-6.3,9-10c2.5-3.1,4.8-6.2,6.9-9.4
	c0.7-1,1.3-2.1,2-3.2c0.3-0.6,0.7-1.1,1-1.7c4.1-6.7,7.8-13.9,10.9-21.5c7.6-18.3,12.1-38.5,13.6-60.3c0.4-5.2,0.5-10.8,0.5-17.2
	c0-6.3-0.2-11.9-0.5-17.2c-1.2-17.5-4.5-34.3-9.7-49.8c3.1-9.1,6.8-17.7,11-25.5c1.2,2.1,2.2,3.9,3,5.6
	c7.8,15.3,13.5,33.4,16.4,52.3c1.7,11.2,2.6,22.9,2.6,34.6c0,11.8-0.9,23.4-2.6,34.6c-2.9,18.9-8.6,37-16.4,52.3
	c-2.1,4.1-4.5,8.2-7.1,12.2c0.3,0.6,0.7,1.1,1,1.6c0.6,1.1,1.3,2.2,2,3.2c1.1,1.6,2.1,3,3,4.3c-3.1,4.2-6.3,8.1-9.6,11.7
	c-2.5-2.1-5-4.4-7.3-6.8c-3.3,3.5-6.6,6.5-10,9c-0.4,0.3-0.8,0.5-1.1,0.8c-0.2,0.2-0.5,0.3-0.7,0.5c2.5,2.5,5.2,4.8,7.9,6.9
	c1.1,0.9,2.2,1.7,3.4,2.5l-0.3,0.1c-1,0.2-2,0.3-3,0.4c-1-0.1-2.1-0.3-3.1-0.4l-0.3-0.1c-4.7-0.8-9.2-2.3-13.5-4.3
	c0.2-0.1,0.3-0.2,0.5-0.2c-0.1,0-0.2,0.1-0.3,0.1l-0.2,0.1C92.8,265.4,85.6,267.2,78.7,267.3L78.7,267.3z M120.5,267.4L120.5,267.4
	l20.8-5C134.5,265.4,127.4,267.2,120.5,267.4z M78.7,267.4L78.7,267.4c-10.9-0.3-22.2-4.4-31.7-11.5c-10.8-8.1-20.3-19.9-28-35.1
	c-7.8-15.3-13.5-33.4-16.4-52.3C0.9,157.3,0,145.6,0,133.9c0-11.7,0.9-23.4,2.6-34.6C5.5,80.4,11.2,62.3,19,47
	c7.8-15.2,17.2-27,28-35.1C56.5,4.7,67.8,0.7,78.7,0.4c6.9,0.2,14.1,1.9,20.9,5c6.8-3.1,14-4.9,20.9-5.1c1.3,0,2.5,0.1,3.9,0.3
	c1.2,0.1,2.4,0.3,3.4,0.5c4.7,0.8,9.2,2.3,13.5,4.3c6.8-3.1,14-4.9,20.9-5c10.9,0.3,22.2,4.4,31.7,11.5c10.8,8.1,20.2,19.9,28,35.1
	c7.8,15.3,13.5,33.4,16.4,52.3c1.7,11.2,2.6,22.9,2.6,34.6c0,11.7-0.9,23.4-2.6,34.6c-2.9,18.9-8.6,37-16.4,52.3
	c-7.8,15.2-17.2,27-28,35.1c-9.5,7.1-20.8,11.2-31.7,11.5c-6.9-0.2-14.1-1.9-20.9-5c3-1.4,6.1-3.1,9-5.2l-29.9,9.9
	c0.2-0.1,0.4-0.3,0.5-0.4c0.1-0.1,0.2-0.2,0.4-0.3c3.8-2.7,7.4-5.8,10.9-9.2c3.1-3,6-6.3,9-10c2.5-3,4.8-6.2,6.9-9.4
	c15.7-23.4,25.3-53.3,27.6-86.6c0.4-5.5,0.6-11.3,0.6-17.2c0-6-0.2-11.8-0.6-17.2c-2.3-33.3-11.8-63.3-27.6-86.6c-1-1.5-2-2.9-3-4.3
	c3.1-4.2,6.3-8.1,9.6-11.7c9.8,8,18.3,19.1,25.3,32.9c7.8,15.3,13.5,33.4,16.4,52.3c1.7,11.2,2.6,22.9,2.6,34.6
	c0,11.7-0.9,23.4-2.6,34.6c-2.9,18.9-8.6,37-16.4,52.3c-7.8,15.2-17.2,27-28,35.1c-0.4,0.3-0.7,0.5-1.1,0.8
	c-0.3,0.2-0.5,0.3-0.8,0.5c3.8,3.7,7.8,7.1,11.8,9.9c10-7,19.6-17.1,27.8-29.3c15.7-23.4,25.3-53.3,27.6-86.6
	c0.4-5.6,0.6-11.4,0.6-17.2c0-5.9-0.2-11.7-0.6-17.2c-2.3-33.3-11.8-63.3-27.6-86.6c-8.3-12.3-17.6-22.2-27.8-29.3
	c-0.2,0.1-0.3,0.3-0.5,0.4c-0.1,0.1-0.3,0.2-0.4,0.3c-3.8,2.7-7.4,5.8-10.9,9.2c-3,3-6.1,6.3-9,10c-2.5,3.1-4.9,6.3-6.9,9.4
	c-0.7,1-1.3,2.1-2,3.2c-0.3,0.6-0.7,1.1-1,1.7c-4.2,6.8-7.8,14-10.9,21.5c-7.5,18.2-12.1,38.5-13.6,60.3c-0.4,5.2-0.5,10.9-0.5,17.2
	c0,6.3,0.2,11.9,0.5,17.2c1.2,17.5,4.5,34.2,9.7,49.8c-3.1,9.2-6.8,17.7-11,25.5c-1.3-2.4-2.3-4.1-3-5.6
	c-7.8-15.3-13.5-33.4-16.4-52.3c-1.7-11.2-2.6-22.9-2.6-34.6c0-11.8,0.9-23.4,2.6-34.6c2.9-18.9,8.6-37,16.4-52.3
	c2.1-4.1,4.5-8.2,7.1-12.2c3.4-5.1,7.1-9.8,10.9-13.9c3.4-3.5,6.6-6.5,10-9c0.4-0.3,0.8-0.5,1.2-0.8c0.2-0.1,0.4-0.3,0.7-0.4
	c2.8-1.9,5.7-3.6,8.6-5c-2.9,1.4-5.8,3-8.6,5c-2.6-2.5-5.2-4.8-7.9-6.9c-1.1-0.9-2.3-1.7-3.4-2.5L120.8,1c-0.1-0.1-0.2-0.2-0.4-0.3
	c-0.2,0.1-0.3,0.2-0.4,0.3c-0.2,0.1-0.3,0.2-0.4,0.3c-3.8,2.7-7.4,5.8-10.9,9.2c-3.1,3-6,6.3-9,10c-2.5,3.1-4.8,6.2-6.9,9.4
	c-15.7,23.3-25.3,53.3-27.6,86.6c-0.4,5.5-0.6,11.3-0.6,17.2c0,6,0.2,11.8,0.6,17.2c2.3,33.3,11.8,63.3,27.6,86.6c1,1.5,2,2.9,3,4.3
	c-3.1,4.2-6.3,8.1-9.6,11.7c-9.8-8-18.3-19.1-25.3-32.9c-7.8-15.3-13.5-33.4-16.4-52.3c-1.7-11.2-2.6-22.9-2.6-34.6
	c0-11.7,0.9-23.4,2.6-34.6c2.9-18.9,8.6-37,16.4-52.3c7.8-15.2,17.2-27,28-35.1c0.4-0.3,0.7-0.5,1.1-0.8c0.2-0.2,0.5-0.3,0.7-0.5
	c-3.8-3.7-7.8-7-11.8-9.9C68.6,7.8,59.2,17.7,50.9,30c-15.7,23.4-25.3,53.3-27.6,86.6c-0.4,5.5-0.6,11.3-0.6,17.2
	c0,6,0.2,11.8,0.6,17.2c2.3,33.3,11.8,63.3,27.6,86.6c8.2,12.2,17.8,22.3,27.8,29.3L78.7,267.4L78.7,267.4z"/>
<path d="M363.7,53.8L363.7,53.8L363.7,53.8z M441.8,214h-0.3h-67.8V208v-0.3c7.1-0.7,9.2-1.8,11.8-4c3.2-2.8,3.8-7.3,3.9-15
	c0-2.3,0-4.9,0-7.9v-94c0-2.9,0-5.5,0-7.9c-0.1-7.7-0.7-12.3-3.9-15c-2.6-2.2-4.7-3.3-11.8-4v-0.3v-5.9h67.8V60
	c-7.1,0.7-11.3,1.5-13.9,3.7c-4,3.5-4,9.9-4,21.6v1.8v93.5c0.1,9.9,1.3,15.7,4.8,18c4.3,2.8,10.3,3.3,19.4,3.3
	c11.1,0,23.3-2,31.2-19.2h8L476.1,214H441.8z M554.8,214h-0.3h-67.8V208v-0.3c7.1-0.7,9.2-1.8,11.8-4c3.2-2.8,3.8-7.3,3.9-15
	c0-2.3,0-4.9,0-7.9v-94c-0.1-2.9,0-5.5,0-7.9c-0.1-7.7-0.7-12.3-3.9-15c-2.6-2.2-4.7-3.3-11.8-4v-0.3v-5.9h67.8h0V60
	c-7.1,0.7-11.3,1.5-13.9,3.7c-4.1,3.5-4,9.9-4,21.6v1.8v93.5c0.1,9.9,1.3,15.7,4.8,18c4.3,2.8,10.3,3.3,19.4,3.3
	c11.1,0,23.3-2,31.2-19.2h8L589.2,214H554.8z M303.9,218.1L303.9,218.1c-27.4,0-38.7-14.4-42-35.5h7.8c3.1,12.6,13.1,19.6,22.8,19.7
	c22.7,0.3,21.2-22.3,21.2-38.3V85.4c0-11.7,0.1-18.2-4-21.6c-1.4-1.2-3.3-2-5.9-2.6c-2.2-0.5-4.8-0.8-8.1-1.2v-6.2H312h51.7V60
	c-7.1,0.7-9.2,1.8-11.8,4c-4.1,3.5-4,9.6-4,21.4v24.7v61.1C347.9,207.5,327.2,218.1,303.9,218.1L303.9,218.1z"/>
</svg>
